<?xml version="1.0" encoding="UTF-8"?>
<!DOCTYPE svg PUBLIC "-//W3C//DTD SVG 1.1//EN" "http://www.w3.org/Graphics/SVG/1.1/DTD/svg11.dtd">
<svg xmlns="http://www.w3.org/2000/svg" version="1.1" width="154px" height="120px" style="shape-rendering:geometricPrecision; text-rendering:geometricPrecision; image-rendering:optimizeQuality; fill-rule:evenodd; clip-rule:evenodd" xmlns:xlink="http://www.w3.org/1999/xlink">
<g><path style="opacity:1" fill="#f4f4f4" d="M -0.5,-0.5 C 2.5,-0.5 5.5,-0.5 8.5,-0.5C 4.5,1.5 1.5,4.5 -0.5,8.5C -0.5,5.5 -0.5,2.5 -0.5,-0.5 Z"/></g>
<g><path style="opacity:1" fill="#020202" d="M 8.5,-0.5 C 53.5,-0.5 98.5,-0.5 143.5,-0.5C 148.08,1.07835 151.413,4.07835 153.5,8.5C 153.5,42.1667 153.5,75.8333 153.5,109.5C 152.625,111.568 151.459,113.568 150,115.5C 147.905,117.125 145.739,118.458 143.5,119.5C 98.5,119.5 53.5,119.5 8.5,119.5C 4.5,117.5 1.5,114.5 -0.5,110.5C -0.5,76.5 -0.5,42.5 -0.5,8.5C 1.5,4.5 4.5,1.5 8.5,-0.5 Z"/></g>
<g><path style="opacity:1" fill="#f5f5f5" d="M 143.5,-0.5 C 146.833,-0.5 150.167,-0.5 153.5,-0.5C 153.5,2.5 153.5,5.5 153.5,8.5C 151.413,4.07835 148.08,1.07835 143.5,-0.5 Z"/></g>
<g><path style="opacity:1" fill="#f2f2f2" d="M 39.5,34.5 C 41.9642,37.5793 41.2976,40.4126 37.5,43C 36.2068,43.49 34.8734,43.6567 33.5,43.5C 33.9319,39.4103 35.9319,36.4103 39.5,34.5 Z"/></g>
<g><path style="opacity:1" fill="#f9f9f9" d="M 71.5,61.5 C 69.5,61.5 67.5,61.5 65.5,61.5C 65.5,65.8333 65.5,70.1667 65.5,74.5C 63.8333,74.5 62.1667,74.5 60.5,74.5C 60.5,62.1667 60.5,49.8333 60.5,37.5C 66.5092,37.3338 72.5092,37.5005 78.5,38C 85.5495,42.4869 87.3828,48.6535 84,56.5C 80.9069,60.7949 76.7403,62.4616 71.5,61.5 Z"/></g>
<g><path style="opacity:1" fill="#0e0e0e" d="M 65.5,42.5 C 69.1817,42.3347 72.8484,42.5014 76.5,43C 81.8333,47.3333 81.8333,51.6667 76.5,56C 72.8484,56.4986 69.1817,56.6653 65.5,56.5C 65.5,51.8333 65.5,47.1667 65.5,42.5 Z"/></g>
<g><path style="opacity:1" fill="#fafafa" d="M 24.5,44.5 C 27.836,44.467 31.0027,45.1336 34,46.5C 39.2505,43.442 44.0839,43.942 48.5,48C 43.1978,53.7148 43.5311,59.2148 49.5,64.5C 47.5717,73.2951 42.5717,75.9618 34.5,72.5C 29.5928,75.7979 25.4262,75.1312 22,70.5C 17.4975,63.9707 16.4975,56.9707 19,49.5C 20.7297,47.5981 22.563,45.9314 24.5,44.5 Z"/></g>
<g><path style="opacity:1" fill="#efefef" d="M 94.5,47.5 C 97.8499,47.335 101.183,47.5017 104.5,48C 106.286,48.7845 107.786,49.9512 109,51.5C 110.396,59.0804 110.896,66.747 110.5,74.5C 108.5,74.5 106.5,74.5 104.5,74.5C 104.657,73.1266 104.49,71.7932 104,70.5C 99.2814,75.3657 94.2814,75.699 89,71.5C 86.0497,65.6434 87.5497,61.4767 93.5,59C 97.1516,58.5014 100.818,58.3347 104.5,58.5C 104.676,52.8427 102.009,50.676 96.5,52C 94.5473,55.2868 91.8806,56.1202 88.5,54.5C 89.8334,51.5067 91.8334,49.1734 94.5,47.5 Z"/></g>
<g><path style="opacity:1" fill="#f3f3f3" d="M 112.5,47.5 C 114.5,47.5 116.5,47.5 118.5,47.5C 120.357,54.5726 122.524,61.5726 125,68.5C 126.866,61.7347 129.033,55.0681 131.5,48.5C 133.421,47.359 135.421,47.1923 137.5,48C 133.534,58.8949 129.368,69.7282 125,80.5C 122.303,83.8705 118.803,85.2038 114.5,84.5C 114.5,82.8333 114.5,81.1667 114.5,79.5C 118.789,80.5168 121.122,78.8502 121.5,74.5C 118.296,65.5559 115.296,56.5559 112.5,47.5 Z"/></g>
<g><path style="opacity:1" fill="#0b0b0b" d="M 95.5,62.5 C 98.5,62.5 101.5,62.5 104.5,62.5C 103.883,69.2154 100.383,71.2154 94,68.5C 93.2568,66.1261 93.7568,64.1261 95.5,62.5 Z"/></g>
<g><path style="opacity:1" fill="#464646" d="M 71.5,61.5 C 70.0813,62.4511 68.4147,62.7845 66.5,62.5C 66.8168,66.7016 66.4834,70.7016 65.5,74.5C 65.5,70.1667 65.5,65.8333 65.5,61.5C 67.5,61.5 69.5,61.5 71.5,61.5 Z"/></g>
<g><path style="opacity:1" fill="#f3f3f3" d="M 153.5,109.5 C 153.5,112.833 153.5,116.167 153.5,119.5C 150.167,119.5 146.833,119.5 143.5,119.5C 145.739,118.458 147.905,117.125 150,115.5C 151.459,113.568 152.625,111.568 153.5,109.5 Z"/></g>
<g><path style="opacity:1" fill="#f7f7f7" d="M -0.5,110.5 C 1.5,114.5 4.5,117.5 8.5,119.5C 5.5,119.5 2.5,119.5 -0.5,119.5C -0.5,116.5 -0.5,113.5 -0.5,110.5 Z"/></g>
</svg>
