<?xml version="1.0" encoding="UTF-8"?>
<!DOCTYPE svg PUBLIC "-//W3C//DTD SVG 1.1//EN" "http://www.w3.org/Graphics/SVG/1.1/DTD/svg11.dtd">
<svg xmlns="http://www.w3.org/2000/svg" version="1.1" width="147px" height="127px" style="shape-rendering:geometricPrecision; text-rendering:geometricPrecision; image-rendering:optimizeQuality; fill-rule:evenodd; clip-rule:evenodd" xmlns:xlink="http://www.w3.org/1999/xlink">
<g><path style="opacity:1" fill="#010101" d="M 113.5,-0.5 C 115.833,-0.5 118.167,-0.5 120.5,-0.5C 129.194,8.52655 137.861,17.5265 146.5,26.5C 146.5,27.8333 146.5,29.1667 146.5,30.5C 138.032,39.8008 129.032,48.6341 119.5,57C 114.831,58.5383 111.664,57.0383 110,52.5C 109.501,48.1794 109.334,43.8461 109.5,39.5C 106.482,39.3354 103.482,39.502 100.5,40C 79.5,62.3333 58.5,84.6667 37.5,107C 25.5,107.667 13.5,107.667 1.5,107C 0.955796,106.283 0.28913,105.783 -0.5,105.5C -0.5,99.8333 -0.5,94.1667 -0.5,88.5C 0.267389,87.828 0.934056,86.9947 1.5,86C 10.1667,85.6667 18.8333,85.3333 27.5,85C 48.5,62.6667 69.5,40.3333 90.5,18C 96.8246,17.5005 103.158,17.3338 109.5,17.5C 109.334,13.1539 109.501,8.82056 110,4.5C 110.257,2.09347 111.424,0.426808 113.5,-0.5 Z"/></g>
<g><path style="opacity:1" fill="#020202" d="M -0.5,36.5 C -0.5,30.8333 -0.5,25.1667 -0.5,19.5C 0.28913,19.2172 0.955796,18.7172 1.5,18C 13.5,17.3333 25.5,17.3333 37.5,18C 44.1667,25.3333 50.8333,32.6667 57.5,40C 52.2907,45.0413 47.2907,50.208 42.5,55.5C 37.7093,50.208 32.7093,45.0413 27.5,40C 18.8333,39.6667 10.1667,39.3333 1.5,39C 0.934056,38.0053 0.267389,37.172 -0.5,36.5 Z"/></g>
<g><path style="opacity:1" fill="#010101" d="M 146.5,94.5 C 146.5,95.8333 146.5,97.1667 146.5,98.5C 137.443,108.558 127.777,117.892 117.5,126.5C 117.167,126.5 116.833,126.5 116.5,126.5C 114.552,125.869 112.719,124.869 111,123.5C 109.661,118.264 109.161,112.93 109.5,107.5C 103.158,107.666 96.8246,107.5 90.5,107C 84.0169,99.6828 77.3503,92.5162 70.5,85.5C 75.5279,80.1405 80.5279,74.8071 85.5,69.5C 90.3182,74.8186 95.3182,79.9853 100.5,85C 103.482,85.498 106.482,85.6646 109.5,85.5C 109.112,80.3722 109.612,75.3722 111,70.5C 113.21,67.7104 116.044,66.877 119.5,68C 129.032,76.3659 138.032,85.1992 146.5,94.5 Z"/></g>
</svg>
