<?xml version="1.0" encoding="UTF-8"?>
<!DOCTYPE svg PUBLIC "-//W3C//DTD SVG 1.1//EN" "http://www.w3.org/Graphics/SVG/1.1/DTD/svg11.dtd">
<svg xmlns="http://www.w3.org/2000/svg" version="1.1" width="124px" height="116px" style="shape-rendering:geometricPrecision; text-rendering:geometricPrecision; image-rendering:optimizeQuality; fill-rule:evenodd; clip-rule:evenodd" xmlns:xlink="http://www.w3.org/1999/xlink">
<g><path style="opacity:1" fill="#000000" d="M 59.5,-0.5 C 60.8333,-0.5 62.1667,-0.5 63.5,-0.5C 83.2681,7.53773 103.268,15.2044 123.5,22.5C 123.5,24.8333 123.5,27.1667 123.5,29.5C 120.946,30.388 118.279,30.7214 115.5,30.5C 115.739,32.4672 115.406,34.3005 114.5,36C 79.1667,36.6667 43.8333,36.6667 8.5,36C 7.59391,34.3005 7.26057,32.4672 7.5,30.5C 4.72116,30.7214 2.05449,30.388 -0.5,29.5C -0.5,27.1667 -0.5,24.8333 -0.5,22.5C 19.7319,15.2044 39.7319,7.53773 59.5,-0.5 Z"/></g>
<g><path style="opacity:1" fill="#040404" d="M 20.5,40.5 C 25.8333,40.5 31.1667,40.5 36.5,40.5C 36.3334,57.5033 36.5001,74.5033 37,91.5C 42.4066,90.5268 47.9066,90.1934 53.5,90.5C 53.5,73.8333 53.5,57.1667 53.5,40.5C 58.8333,40.5 64.1667,40.5 69.5,40.5C 69.5,57.1667 69.5,73.8333 69.5,90.5C 75.1667,90.5 80.8333,90.5 86.5,90.5C 86.5,73.8333 86.5,57.1667 86.5,40.5C 91.8333,40.5 97.1667,40.5 102.5,40.5C 102.333,57.17 102.5,73.8367 103,90.5C 106.763,90.0333 110.597,90.5333 114.5,92C 115.602,94.4009 115.769,96.9009 115,99.5C 79.3333,98.1667 43.6667,98.1667 8,99.5C 5.80357,93.2589 7.97023,90.2589 14.5,90.5C 16.0998,90.5507 17.5998,90.8841 19,91.5C 19.1809,74.4263 19.6809,57.4263 20.5,40.5 Z"/></g>
<g><path style="opacity:1" fill="#000000" d="M 123.5,106.5 C 123.5,109.5 123.5,112.5 123.5,115.5C 82.1667,115.5 40.8333,115.5 -0.5,115.5C -0.5,112.5 -0.5,109.5 -0.5,106.5C 0.626561,105.878 1.62656,105.045 2.5,104C 41.8333,103.333 81.1667,103.333 120.5,104C 121.373,105.045 122.373,105.878 123.5,106.5 Z"/></g>
</svg>
