<?xml version="1.0" encoding="UTF-8"?>
<!DOCTYPE svg PUBLIC "-//W3C//DTD SVG 1.1//EN" "http://www.w3.org/Graphics/SVG/1.1/DTD/svg11.dtd">
<svg xmlns="http://www.w3.org/2000/svg" version="1.1" width="162px" height="114px" style="shape-rendering:geometricPrecision; text-rendering:geometricPrecision; image-rendering:optimizeQuality; fill-rule:evenodd; clip-rule:evenodd" xmlns:xlink="http://www.w3.org/1999/xlink">
<g><path style="opacity:1" fill="#040404" d="M 74.5,-0.5 C 78.5,-0.5 82.5,-0.5 86.5,-0.5C 106.85,7.54745 113.017,21.8808 105,42.5C 93.6547,57.4612 79.8214,60.2945 63.5,51C 49.1895,37.4804 48.0229,22.9804 60,7.5C 64.4076,3.88329 69.241,1.21662 74.5,-0.5 Z"/></g>
<g><path style="opacity:1" fill="#080808" d="M 19.5,15.5 C 31.3184,14.8144 38.3184,20.3144 40.5,32C 36.7537,47.3737 27.7537,51.7071 13.5,45C 5.5,36.3333 5.5,27.6667 13.5,19C 15.7274,18.059 17.7274,16.8923 19.5,15.5 Z"/></g>
<g><path style="opacity:1" fill="#090909" d="M 133.5,15.5 C 147.315,15.1472 153.815,21.8138 153,35.5C 146.782,49.1288 137.448,51.7955 125,43.5C 117.482,30.8932 120.315,21.5599 133.5,15.5 Z"/></g>
<g><path style="opacity:1" fill="#040404" d="M -0.5,83.5 C -0.5,78.1667 -0.5,72.8333 -0.5,67.5C 1.97883,62.8566 5.64549,59.3566 10.5,57C 19.5,56.3333 28.5,56.3333 37.5,57C 39.5,58.3333 41.5,59.6667 43.5,61C 32.5785,67.0134 26.2452,76.1801 24.5,88.5C 17.4921,88.6663 10.4921,88.4996 3.5,88C 1.92975,86.6032 0.596413,85.1032 -0.5,83.5 Z"/></g>
<g><path style="opacity:1" fill="#050505" d="M 161.5,69.5 C 161.5,73.8333 161.5,78.1667 161.5,82.5C 160.78,85.0601 159.113,86.8935 156.5,88C 149.808,88.8309 143.142,88.6642 136.5,87.5C 133.818,75.9943 127.485,67.161 117.5,61C 119.156,59.1706 121.156,57.8372 123.5,57C 132.5,56.3333 141.5,56.3333 150.5,57C 156.215,59.5373 159.882,63.7039 161.5,69.5 Z"/></g>
<g><path style="opacity:1" fill="#050505" d="M 119.5,113.5 C 93.5,113.5 67.5,113.5 41.5,113.5C 36.5166,112.014 33.3499,108.681 32,103.5C 28.9245,81.5997 38.0912,68.5997 59.5,64.5C 66.2584,66.1397 73.0917,67.473 80,68.5C 87.2819,67.681 94.4486,66.3477 101.5,64.5C 119.882,67.3909 129.216,78.2242 129.5,97C 129.819,104.885 126.485,110.385 119.5,113.5 Z"/></g>
</svg>
